<svg id="Iconly_Bold_Danger" data-name="Iconly/Bold/Danger" xmlns="http://www.w3.org/2000/svg" width="35" height="35" viewBox="0 0 35 35">
  <g id="Danger" transform="translate(2.916 4.375)">
    <path id="Danger-2" data-name="Danger" d="M25.253,26.25H3.908a4.563,4.563,0,0,1-1.327-.289A4.1,4.1,0,0,1,.319,23.735a4.007,4.007,0,0,1-.013-3.1L10.98,2.09a4,4,0,0,1,1.6-1.575A4.112,4.112,0,0,1,14.574,0,4.161,4.161,0,0,1,18.2,2.1L28.8,20.5a4.282,4.282,0,0,1,.365,1.46A4.015,4.015,0,0,1,28.1,24.908,4.144,4.144,0,0,1,25.253,26.25ZM14.581,17.9a1.273,1.273,0,1,0,0,2.545,1.279,1.279,0,0,0,1.268-1.288A1.264,1.264,0,0,0,14.581,17.9Zm0-9.016A1.272,1.272,0,0,0,13.3,10.139v4.088A1.3,1.3,0,0,0,14.581,15.5a1.272,1.272,0,0,0,1.268-1.273V10.139A1.264,1.264,0,0,0,14.581,8.882Z" transform="translate(0 0)" fill="#ec6f6f"/>
  </g>
</svg>
