<svg xmlns="http://www.w3.org/2000/svg" width="40" height="40" viewBox="0 0 40 40">
  <g id="Group_154" data-name="Group 154" transform="translate(-3249 -2451)">
    <circle id="Ellipse_19" data-name="Ellipse 19" cx="20" cy="20" r="20" transform="translate(3249 2451)" fill="#ec6f6f"/>
    <g id="fire-flame" transform="translate(3261.658 2460.535)">
      <path id="Path_28" data-name="Path 28" d="M131.3,21.889a.255.255,0,0,0,.359-.341,4.188,4.188,0,0,1-.538-2.064,4.4,4.4,0,0,1,2.174-3.707c1.146-.749.833-1.715,1.023-2.866a3.719,3.719,0,0,1,.895-1.715.257.257,0,0,1,.449.128c.21,1.292,1.887,3.491,2.853,4.927a5.538,5.538,0,0,1,1.033,3.225v.015a4.194,4.194,0,0,1-.538,2.051.255.255,0,0,0,.359.341,7.741,7.741,0,0,0,3.489-4.963,9.073,9.073,0,0,0-.4-4.873,11.578,11.578,0,0,0-1.32-2.6c-1.766-2.627-4.84-6.655-5.209-9.01a.517.517,0,0,0-.9-.254,6.545,6.545,0,0,0-.856,1.22,7.127,7.127,0,0,0-.638,1.715,7.594,7.594,0,0,0,.079,3.445,7.759,7.759,0,0,0,.354,1.066,3.345,3.345,0,0,1,.313,1.033,1.252,1.252,0,0,1-1.241,1.266,1.194,1.194,0,0,1-1.22-1.036.258.258,0,0,0-.382-.177,7.688,7.688,0,0,0-.131,13.176Z" transform="translate(-127.639 0)" fill="#fff"/>
    </g>
  </g>
</svg>
