<svg xmlns="http://www.w3.org/2000/svg" width="24.792" height="33.333" viewBox="0 0 24.792 33.333">
  <g id="Group_80" data-name="Group 80" transform="translate(-8.104)">
    <g id="Iconly_Bold_Location" data-name="Iconly/Bold/Location" transform="translate(8.104)">
      <g id="Location">
        <path id="Location-2" data-name="Location" d="M12.4,33.333a1.82,1.82,0,0,1-1.07-.412,33.481,33.481,0,0,1-8.08-8.568A18.92,18.92,0,0,1,0,13.863,14.622,14.622,0,0,1,3.65,4.057,11.684,11.684,0,0,1,12.386,0c6.841,0,12.406,6.219,12.406,13.863a18.93,18.93,0,0,1-3.252,10.489,34.113,34.113,0,0,1-8.081,8.568A1.77,1.77,0,0,1,12.4,33.333Zm-.016-23.7A4.409,4.409,0,0,0,8.3,14.295a4.859,4.859,0,0,0,1.2,3.257,3.847,3.847,0,0,0,2.884,1.331,4.371,4.371,0,0,0,4.1-4.588,4.971,4.971,0,0,0-1.207-3.289A3.839,3.839,0,0,0,12.386,9.628Z" fill="#53db93"/>
      </g>
    </g>
  </g>
</svg>
