<svg xmlns="http://www.w3.org/2000/svg" width="94.808" height="96.333" viewBox="0 0 94.808 96.333">
  <g id="Group_85" data-name="Group 85" transform="translate(-941.628 -358.333)">
    <g id="bin" transform="translate(937.498 356.333)">
      <path id="Path_1" data-name="Path 1" d="M14.3,26.67,21.6,82.206a3.265,3.265,0,0,0,3.238,2.839H61.565A3.265,3.265,0,0,0,64.8,82.206l5.641-42.878L72.592,23H17.966Z" transform="translate(6.433 13.288)" fill="#fff"/>
      <path id="Path_2" data-name="Path 2" d="M30,32.266V68.186a3.266,3.266,0,0,0,6.531,0V32.266a3.266,3.266,0,0,0-6.531,0Z" transform="translate(16.37 17.085)" fill="#ec6f6f"/>
      <path id="Path_3" data-name="Path 3" d="M22,32.266V68.186a3.266,3.266,0,0,0,6.531,0V32.266a3.266,3.266,0,1,0-6.531,0Z" transform="translate(11.307 17.085)" fill="#ec6f6f"/>
      <path id="Path_4" data-name="Path 4" d="M38,32.266V68.186a3.266,3.266,0,0,0,6.531,0V32.266a3.266,3.266,0,1,0-6.531,0Z" transform="translate(21.432 17.085)" fill="#ec6f6f"/>
      <path id="Path_5" data-name="Path 5" d="M30,19.531,36.531,22.8h8.164l-3.266-8.164L34.9,13Z" transform="translate(16.37 6.96)" fill="#fff"/>
      <path id="Path_6" data-name="Path 6" d="M51.164,10,43,11.633V14.9l1.633,6.531L57.695,19.8l-4.9-6.531Z" transform="translate(24.596 5.062)" fill="#fff"/>
      <path id="Path_7" data-name="Path 7" d="M46.65,4.087a3.265,3.265,0,0,0-4.617,0L5.087,41.031a3.265,3.265,0,0,0,0,4.617L9.7,50.268,51.268,8.7Z" transform="translate(0 0.715)" fill="#fff"/>
      <path id="Path_8" data-name="Path 8" d="M64.8,82.206l.638-4.854a51.188,51.188,0,0,1-34.12-51.114L31.5,23H17.966L14.3,26.67,21.6,82.206a3.265,3.265,0,0,0,3.238,2.839H61.565A3.265,3.265,0,0,0,64.8,82.206Z" transform="translate(6.433 13.288)" fill="#303030" opacity="0.12"/>
      <path id="Path_9" data-name="Path 9" d="M40.48,12.667,5.772,47.375l2.893,2.893L50.229,8.7,45.612,4.087a3.265,3.265,0,0,0-4.617,0l-.513.513a5.7,5.7,0,0,1,0,8.068Z" transform="translate(1.039 0.715)" fill="#303030" opacity="0.12"/>
      <path id="Path_10" data-name="Path 10" d="M52.2,13.266,50.57,10l-2.968.594,1.336,2.671,4.9,6.531-9.9,1.238.1.4L57.1,19.8Z" transform="translate(25.19 5.062)" fill="#303030" opacity="0.12"/>
      <path id="Path_11" data-name="Path 11" d="M36.865,16.266,39.477,22.8H43.4L40.13,14.633,33.6,13l-1.546,2.062Z" transform="translate(17.669 6.96)" fill="#303030" opacity="0.12"/>
      <path id="Path_12" data-name="Path 12" d="M12.27,29.743,8.807,26.28a4.9,4.9,0,0,1,0-6.928L20.353,7.806a4.9,4.9,0,0,1,6.928,0l3.463,3.463-2.309,2.309-3.463-3.463a1.637,1.637,0,0,0-2.31,0L11.116,21.661a1.636,1.636,0,0,0,0,2.31l3.463,3.463Z" transform="translate(2.053 2.767)" fill="#fff"/>
      <g id="Group_84" data-name="Group 84" transform="translate(69.228 2)">
        <path id="Path_13" data-name="Path 13" d="M44,2h3.266V5.266H44Z" transform="translate(-44 -2)" fill="#fff"/>
        <path id="Path_14" data-name="Path 14" d="M54.793,12.324,52.8,9.735A19.037,19.037,0,0,1,68.14,6.162l-.64,3.2a15.793,15.793,0,0,0-12.706,2.96Z" transform="translate(-38.43 0.4)" fill="#fff"/>
        <path id="Path_15" data-name="Path 15" d="M57,12h3.266v3.266H57Z" transform="translate(-35.774 4.328)" fill="#fff"/>
        <path id="Path_16" data-name="Path 16" d="M51.266,10.164H48A8.173,8.173,0,0,1,56.164,2V5.266A4.9,4.9,0,0,0,51.266,10.164Z" transform="translate(-41.469 -2)" fill="#fff"/>
      </g>
    </g>
  </g>
</svg>
